<svg xmlns="http://www.w3.org/2000/svg" viewBox="0 0 496.158 496.158">
  <path fill="#0d47a1" d="M248.082.003C111.07.003 0 111.063 0 248.085c0 137.001 111.07 248.07 248.082 248.07 137.006 0 248.076-111.069 248.076-248.07C496.158 111.062 385.088.003 248.082.003z"/>
  <path fill="#e0e0e2" d="M384.149 169.049c-4.687-8.149-9.8-9.907-16.064-13.437L262.15 106.106c-7.717-3.603-20.225-3.603-27.939 0l-105.936 49.506c-8.31 4.702-13.423 8.962-16.619 14.715-3.196 5.752-4.048 12.57-4.936 22.791v130.686c0 9.517 7.173 13.343 14.386 17.233l109.092 48.828c.477 0 11.846 2.889 18.238 2.889 6.392 0 17.526-2.889 17.526-2.889l109.092-48.828c6.966-3.57 14.386-7.716 14.386-17.233V193.119c-.231-10.008-.801-16.264-5.291-24.07z"/>
  <path fill="#fff" d="M230.952 225.638l-104.488-46.767c-7.61 0-13.779 7.391-13.779 16.506v125.171c0 9.115 6.001 12.765 13.779 16.506l104.488 46.767c7.61 0 13.779-7.391 13.779-16.506V250.856c-.001-9.115-4.592-20.404-13.779-25.218zm138.743-46.767l-104.488 46.767c-8.036 4.813-13.779 16.103-13.779 25.218v116.459c0 9.115 6.169 16.506 13.779 16.506l104.488-46.767c7.21-3.422 13.779-7.391 13.779-16.506V195.377c0-9.115-6.169-16.506-13.779-16.506zm-6.674-19.417l-101.465-47.417c-7.391-3.452-19.372-3.452-26.761 0L133.33 159.454c-7.389 3.456-7.39 9.054 0 12.509l101.465 47.415c7.389 3.455 19.371 3.455 26.761 0l101.465-47.415c7.389-3.455 7.389-9.054 0-12.509z"/>
  <path fill="#999" d="M363.776 323.662c-7.642 2.09-15.63-2.788-17.848-10.9-2.22-8.113 2.174-16.377 9.817-18.467 7.642-2.09 15.63 2.788 17.849 10.9 2.218 8.113-2.175 16.377-9.818 18.467zm-40.478-24.726c-7.642 2.09-15.63-2.788-17.848-10.9-2.22-8.113 2.174-16.377 9.817-18.467 7.642-2.09 15.63 2.788 17.849 10.9 2.218 8.113-2.175 16.377-9.818 18.467zm-40.487-24.724c-7.643 2.09-15.63-2.787-17.85-10.898-2.218-8.112 2.176-16.375 9.82-18.465 7.642-2.09 15.63 2.786 17.849 10.898 2.218 8.111-2.176 16.375-9.819 18.465zM168.113 160.099c0-5.886 8.009-10.653 17.896-10.653s17.896 4.767 17.896 10.653-8.009 10.653-17.896 10.653-17.896-4.767-17.896-10.653zm56.25-24.29c0-5.886 8.009-10.653 17.896-10.653s17.896 4.767 17.896 10.653-8.009 10.653-17.896 10.653-17.896-4.767-17.896-10.653zm15.34 56.89c0-5.886 8.009-10.653 17.896-10.653s17.896 4.767 17.896 10.653-8.009 10.653-17.896 10.653-17.896-4.767-17.896-10.653zm56.24-24.29c0-5.886 8.009-10.653 17.896-10.653s17.896 4.767 17.896 10.653-8.009 10.653-17.896 10.653-17.896-4.767-17.896-10.653zm-92.04 8.31c0-5.886 8.009-10.653 17.896-10.653s17.896 4.767 17.896 10.653-8.009 10.653-17.896 10.653-17.896-4.767-17.896-10.653zm56.25-24.29c0-5.886 8.009-10.653 17.896-10.653s17.896 4.767 17.896 10.653-8.009 10.653-17.896 10.653-17.896-4.767-17.896-10.653zm-112.641 88.499c-7.494 2.313-15.593-2.385-18.097-10.498-2.504-8.114 1.538-16.56 9.032-18.872 7.495-2.313 15.593 2.385 18.098 10.499 2.504 8.113-1.538 16.559-9.033 18.871zm70.466 24.847c-7.495 2.313-15.593-2.386-18.098-10.5-2.504-8.114 1.538-16.56 9.032-18.873 7.495-2.313 15.593 2.386 18.098 10.5 2.504 8.114-1.538 16.56-9.032 18.873zm-77.429 61.654c-7.494 2.313-15.593-2.386-18.097-10.5-2.504-8.113 1.538-16.558 9.032-18.871 7.494-2.313 15.593 2.385 18.097 10.499 2.504 8.113-1.538 16.559-9.032 18.872zm37.493-30.687c-7.494 2.313-15.593-2.386-18.097-10.5-2.504-8.114 1.538-16.56 9.032-18.873 7.494-2.313 15.593 2.386 18.097 10.5 2.504 8.114-1.537 16.56-9.032 18.873zm32.658 56.163c-7.493 2.312-15.591-2.388-18.094-10.502-2.503-8.114 1.54-16.558 9.033-18.87 7.494-2.312 15.592 2.387 18.095 10.501 2.503 8.114-1.54 16.559-9.033 18.87z"/>
</svg>
